<svg id="Layer_1" data-name="Layer 1" xmlns="http://www.w3.org/2000/svg" viewBox="0 0 944.47 976.06"><defs><style>.cls-1{fill:#fff;}.cls-2{fill:#ee5050;}</style></defs><path class="cls-1" d="M22.16,308.58c-.34-1.52-.64-3-1-4.39-4.68-18.77-7.38-37.79-6.71-57.17.91-26.21,7.74-50.54,23.88-71.64,12.51-16.35,28.72-28,47.4-36.42a185.72,185.72,0,0,1,52.66-14.34c29.41-3.85,58.75-2.67,88.06,1.25a543.44,543.44,0,0,1,74.7,15.65,11.39,11.39,0,0,0,13.78-6.19c10.73-22.06,23-43.24,37.77-62.83,15.24-20.15,32.48-38.25,53.88-52,14.46-9.32,30-16,47.05-18.9,22.78-3.88,44.53-.39,65.39,9.26a155.54,155.54,0,0,1,36.87,24.37c23,20,40.65,44.19,55.72,70.41,5.63,9.79,10.61,20,15.8,30,2.41,4.67,5.52,6.21,10.6,4.84a559.39,559.39,0,0,1,67.42-14.12c25-3.52,50.16-5.07,75.45-3.31,21.69,1.52,42.87,5.41,63.13,13.52,18.84,7.55,35.47,18.34,48.94,33.74,13.1,15,21,32.42,25.15,51.69a149.19,149.19,0,0,1,2.84,40c-1.41,24.62-7.18,48.34-15.53,71.48-12.23,33.84-29.11,65.31-48.67,95.41a11.41,11.41,0,0,0-2,8.64,360.1,360.1,0,0,1,3.68,71.35c-.43,10.42-1.51,20.81-2.6,31.18a13,13,0,0,0,2,9.08c16.29,25.2,30.64,51.44,42,79.27,1.69,4.14,3.34,8.3,4.81,12.52a3.92,3.92,0,0,0,3.68,3,37.75,37.75,0,0,1,13.47,4.13c13.8,7.36,21.68,18.78,22.59,34.45.94,16.14-5.83,28.61-19.22,37.56a7.23,7.23,0,0,1-1.29.75c-2.35.88-2.87,2.61-2.85,5a130.13,130.13,0,0,1-3.22,29.57c-7.44,33.58-26.26,58.78-56.08,75.8-17.48,10-36.41,15.8-56.14,19.15a286.5,286.5,0,0,1-62.4,3.21c-30.77-1.54-61-6.66-90.8-14.1a13.07,13.07,0,0,0-9.92,1c-6.28,3.25-12.77,6.11-19.29,8.88a10.41,10.41,0,0,0-5.49,5.14,345.65,345.65,0,0,1-32.88,51.88C569.85,925.62,553,942.91,532.3,956.1c-15.17,9.65-31.48,16.36-49.39,18.92-19.54,2.8-38.38.1-56.62-7.23-15.85-6.37-29.86-15.69-42.69-26.89-20.91-18.25-37.46-40-51.69-63.7-5.12-8.52-9.75-17.32-14.46-26.07a9.89,9.89,0,0,0-4.94-4.71c-5.56-2.47-11.07-5.08-16.46-7.89a8.7,8.7,0,0,0-6.74-.66,519.93,519.93,0,0,1-54,11.21C209.7,853,184,855,158.07,853.42c-20.44-1.21-40.49-4.43-59.86-11.24-20.1-7.07-38.13-17.49-52.83-33.17-16.06-17.14-25.24-37.6-29-60.6-3.68-22.38-2-44.58,2.63-66.64,5.53-26.55,15.07-51.71,26.76-76.11a519.87,519.87,0,0,1,37.74-65.5,12.22,12.22,0,0,0,2.07-8.72,329.39,329.39,0,0,1-1.53-55.82c.68-10.53,1.66-21.05,2.63-31.56a7,7,0,0,0-1.19-4.88q-15.81-23.31-29.31-48c-1.46-2.68-1.53-2.74-4.75-2.07A43.24,43.24,0,0,1,5.15,367.27C-5.6,347.53,1,322.11,19.92,310.17,20.66,309.71,21.33,309.18,22.16,308.58ZM254.23,491.52c.42,15.9.63,31.8,1.31,47.69,1,24.08,3,48.09,5.72,72a9.73,9.73,0,0,0,3.7,6.88A1172.34,1172.34,0,0,0,463.61,753.42c2.93,1.57,5.15,1.69,8.15.07A1172,1172,0,0,0,674.42,614.87a9.06,9.06,0,0,0,3.29-6.33c2.67-22.58,4.74-45.22,5.87-67.93,1.33-26.43,2-52.87,1.27-79.35-.82-30.94-2.72-61.79-6.11-92.55a9.26,9.26,0,0,0-3.49-6.58A1172,1172,0,0,0,471.44,222.57c-2.76-1.48-4.84-1.36-7.53.1q-35.42,19.16-69.47,40.62a1194.64,1194.64,0,0,0-127.8,93.39,11.64,11.64,0,0,0-4.51,8.44c-1.67,18.06-3.76,36.08-5.11,54.16C255.23,443.31,254.35,467.4,254.23,491.52Zm597-75c1-1.45,1.69-2.31,2.26-3.23a497.56,497.56,0,0,0,25.32-46c13.12-27.34,23.53-55.58,28.32-85.67,2.88-18,3.53-36.08.26-54.13-5.95-32.94-23.34-57.86-52.6-74.31-20.17-11.34-42.17-16.67-64.94-19.25-21.07-2.38-42.17-2-63.24.06a497.37,497.37,0,0,0-74.75,13.37,26.44,26.44,0,0,0-2.84,1.1c52.42,27.44,96.21,64.22,131.5,111s58.71,99.06,70.71,157.07ZM88.46,554.33h-.84c-.69,1-1.43,2-2,3-6.25,10.59-12.76,21-18.66,31.83-14.18,25.9-26,52.84-33.45,81.5-6.13,23.47-9.47,47.22-6.31,71.53,1.95,15.08,6.24,29.38,13.91,42.57,11.46,19.71,28.22,33.44,48.7,42.91,18.48,8.55,38.08,12.87,58.22,14.86,22.08,2.17,44.18,1.55,66.22-.83a486.26,486.26,0,0,0,62-11c.88-.22,1.72-.59,3.11-1.06-51.22-29.58-93.46-68.13-126.79-116.3S98,612.06,88.46,554.33ZM290.23,149.65c-.16-.22-.26-.52-.45-.58-.81-.3-1.64-.57-2.48-.79-30.5-7.81-61.33-13.52-92.84-15.34A281,281,0,0,0,135,135.37c-18.66,2.89-36.62,8.08-53.27,17.21C56.34,166.52,39.07,187.14,31,215.06a134.94,134.94,0,0,0-4.78,46.11,235.62,235.62,0,0,0,5.49,37.55c.42,1.88,1.08,3.71,1.67,5.7,10.76-1.93,20.72-.91,30.07,4.11a42.51,42.51,0,0,1,19.93,22.32,41.53,41.53,0,0,1,1.82,26c-2.88,11.64-9.64,20.56-19.95,27.19,7.31,14,15.3,27.29,24,40.65Q127,240.48,290.23,149.65ZM806.74,497.06c-1.12,1.28-1.92,2.21-2.74,3.12-14.25,15.91-28.21,32.11-42.84,47.67a944.33,944.33,0,0,1-71.31,67.73,10,10,0,0,0-3.81,6.83c-1.14,9.12-2.59,18.2-4.08,27.26-9.66,59-24.68,116.39-48.24,171.39a25.55,25.55,0,0,0-.82,3.12c2-.9,3.27-1.47,4.55-2.11a363.49,363.49,0,0,0,117-93.06q68.06-82.08,82.39-187.86a7.37,7.37,0,0,0-1.47-5.87Q822.25,517.7,809.23,500C808.54,499.06,807.78,498.31,806.74,497.06ZM662,830.66c.27.34.38.62.57.68a21.56,21.56,0,0,0,2.49.74c26.71,6,53.64,10.37,81,11.41,19.17.73,38.25.16,57.2-3.1,16.87-2.89,33.14-7.65,48.36-15.64,20.59-10.78,36.59-26.08,46.59-47.17a114.63,114.63,0,0,0,10.87-44.2c.12-2.32.31-4.62.49-7.41A43.79,43.79,0,0,1,888,723.41a41.35,41.35,0,0,1-25.65-32.35,40.17,40.17,0,0,1,4-24.61c5.67-11.29,15-18.26,26.86-21.77-.82-10.36-32.23-73.75-40.39-81.84Q816.59,738.85,662,830.66ZM128.84,497.25a12.35,12.35,0,0,0-1.17,1l-22,29.16a6.17,6.17,0,0,0-1.08,4.92c1.36,9.46,2.38,19,4.12,28.37A361.48,361.48,0,0,0,150.3,674.61q53.7,94.07,149.46,144.8c.92.49,1.91.82,3.35,1.44-.5-1.38-.76-2.18-1.09-3a666.34,666.34,0,0,1-30.79-94.44A783.85,783.85,0,0,1,253.51,629c-.67-5.48-2.87-9.18-7-12.73a994.1,994.1,0,0,1-115.78-117C130.23,498.65,129.58,498.06,128.84,497.25Zm678.39-17.69a20.1,20.1,0,0,1,1.22-2.29c8.73-11.77,17.44-23.55,26.24-35.28,1.35-1.81,1.27-3.65,1-5.64a355.48,355.48,0,0,0-18.53-70.87Q767.53,235.25,645.45,167.9c-1.26-.7-2.57-1.32-4.63-2.38.64,1.94,1,3.08,1.39,4.19,2,5.47,4.15,10.91,6.11,16.41,19.21,53.94,31.3,109.53,38.52,166.24A15.55,15.55,0,0,0,692.48,363,992.39,992.39,0,0,1,804.1,476.16C804.87,477.06,805.74,477.94,807.23,479.56Zm-678.73-.73a4.75,4.75,0,0,0,1-.52q.78-.8,1.5-1.65c36.29-43.53,76.4-83.27,119.42-120.11a10.52,10.52,0,0,0,3.71-6.91c2.17-14,4.24-28,6.79-41.92,8.64-47.28,21.21-93.46,38.92-138.2.39-1,.67-2,1-3.09-.52-.06-.78-.18-1-.1-.8.35-1.58.73-2.35,1.13a364.65,364.65,0,0,0-82.84,60.39q-71.07,69.21-98.37,164.72A373.12,373.12,0,0,0,105.6,444c-.33,2.37-.37,4.54,1.28,6.68,6.68,8.65,13.19,17.43,19.78,26.16.57.68,1.15,1.27,1.86,2ZM328.4,131.37l.52.67c9.12-3.1,18.16-6.44,27.37-9.24,9.38-2.86,18.85-5.48,28.4-7.67s19-3.94,28.54-5.4,19.45-2.68,29.22-3.43,19.37-1,29-1,19.38.45,29,1.19,19.55,1.83,29.24,3.3,19.1,3.3,28.52,5.49,19,4.84,28.4,7.71c9.13,2.79,18.11,6.1,27.61,9.33-.41-1-.54-1.53-.76-2-15-29.25-32.49-56.68-56-79.9C545,38.17,531.17,27.73,515.23,20.3c-19.07-8.9-39-12.3-59.89-8.72a113.78,113.78,0,0,0-41,16.06c-19.17,11.89-35,27.42-48.92,44.92-13.68,17.16-25.15,35.75-35.31,55.17C329.48,128.91,329,130.16,328.4,131.37Zm2.26,722.91c.55,1.23.76,1.81,1,2.34,13,23.89,28.1,46.29,47.11,65.88,11.75,12.12,24.8,22.59,39.76,30.5,30,15.87,60.67,17.43,91.82,3.45,19-8.53,34.94-21.31,49.22-36.23,17.37-18.16,31.48-38.7,43.73-60.58a19.2,19.2,0,0,0,.93-2.57c-91.59,32.14-182.39,31.18-273.62-2.79ZM479.4,214.91c10.48,5.92,20.35,11.38,30.11,17.05s19.47,11.47,29.08,17.42,19.13,12,28.56,18.26,18.78,12.58,28,19.08,18.41,13.11,27.46,19.87,18,13.66,26.89,20.65,17.43,14,26.35,21.21a6,6,0,0,0,.16-1.26q-4.87-35.44-12.48-70.39c-8.64-39.38-20-77.9-35.56-115.16a8.81,8.81,0,0,0-5.1-5c-2.13-.92-3.91,0-5.75.55-46.44,14.57-91,33.6-134.37,55.69C481.81,213.4,480.91,214.06,479.4,214.91ZM674.45,629.42A1218.83,1218.83,0,0,1,479,761.42c46.71,24,93.92,44.13,143.75,59.32C649.66,759.3,665.07,695.28,674.45,629.42Zm-218,132A1183.61,1183.61,0,0,1,264.74,631.91c-.95,6.64,7.84,54.58,15.95,87.54,8.46,34.4,19.17,68.06,33.43,100.87,49.31-15.16,96.11-35.17,142.38-58.92ZM617.7,830.61c-.11-.2-.18-.51-.36-.59-.9-.39-1.82-.76-2.76-1.06-49.47-15.42-96.89-35.77-142.86-59.57-2.82-1.47-5-1.62-7.87-.11-44.94,23.35-91.34,43.26-139.63,58.65-1,.32-2,.78-3.83,1.52a360.17,360.17,0,0,0,84.84,26.28,368.85,368.85,0,0,0,163.15-7.07c20.14-5.45,45.59-14.75,49.37-18.07ZM265.23,342.87l.7.38c8.53-6.8,17-13.67,25.59-20.36s17.31-13.34,26.1-19.83,17.69-12.85,26.66-19.09,18.24-12.5,27.48-18.56,18.37-11.85,27.68-17.58,18.79-11.24,28.14-16.77,18.92-10.47,28.61-16.19c-1.12-.66-1.63-1-2.18-1.28-8.12-4-16.22-8.11-24.39-12a839.4,839.4,0,0,0-107.39-43.16c-5.21-1.67-6.2-1.21-8.29,3.69-6.87,16.12-12.93,32.54-18.37,49.19-11.67,35.72-20.15,72.22-26.68,109.2C267.53,327.94,266.42,335.42,265.23,342.87ZM249.94,604.7a1108.82,1108.82,0,0,1,.93-233.88c-41.7,35.95-80.2,74.71-115.06,117.34A949,949,0,0,0,249.94,604.7ZM799.41,488.52c-8.89-15.95-97.66-107.27-109.69-112.63a1057.54,1057.54,0,0,1-1.09,226.59C729,566.87,766,529.35,799.41,488.52ZM606.23,149.7a366.71,366.71,0,0,0-90.6-23c-30.86-3.79-61.69-3.29-92.53.43-26.8,3.24-82.32,18.11-89.3,24.19.74.28,1.42.58,2.12.81a912,912,0,0,1,127,54.23c5.95,3.07,3.7,3.08,9.75,0,41.93-21.54,85-40.35,129.82-55.14C603.5,150.88,604.48,150.41,606.23,149.7ZM838.15,519.78l.81-.09c.92-10.33,1.09-20.7,1-31.08-.19-19-.92-28.15-2.51-31.13l-23.32,30.67ZM121.51,488.14l-18-23.29c-.24,3.84-.54,6.75-.58,9.66q-.2,16.74-.22,33.49a21.35,21.35,0,0,0,.7,3.63Z" transform="translate(0.02 -0.05)"/><path class="cls-2" d="M623.37,621,593,552.87,476.87,292.11a26,26,0,0,0-1.68-3.54,3.43,3.43,0,0,0-4.7-1.16,3.48,3.48,0,0,0-1.2,1.24,21.88,21.88,0,0,0-1.38,2.89q-18.45,41.4-36.88,82.8L321.28,620.77a21.84,21.84,0,0,0-1.32,3.3,3.13,3.13,0,0,0,2,4l.09,0a9.35,9.35,0,0,0,3.15.45c15.58,0,31.16-.18,46.74-.06,3.21,0,4.7-1.25,5.79-4,4.11-10.52,8.34-21,12.59-31.46,5.91-14.54,11.93-29,17.82-43.6,5.44-13.43,10.56-27,16.19-40.35,5.16-12.28,10.84-24.33,16.24-36.51q15-33.92,30.05-67.86c.41-.92,1-1.75,1.78-3.1.87,1.79,1.51,3,2.07,4.3l24.87,55.92-1-.33c-12-3.81-23.77-3.33-35.2,2.31a6,6,0,0,0-3.05,2.94c-3.2,6.9-6.46,13.77-9.68,20.67-.32.68-.52,1.41-.87,2.38a8.34,8.34,0,0,0,1,0c3.32-.63,6.63-1.36,10-1.89,4.71-.75,9.45-1.52,14.22-1,5.35.54,10.7,1.16,16,2.17a51.26,51.26,0,0,1,26.63,13.82c.15.16.28.33.43.48l3.33,7.51a15.81,15.81,0,0,1,.72,1.63,1.82,1.82,0,0,0,.11.38L568.12,625.2c1.17,3.08,1.23,3.13,4.6,3.14,1.54,0,3.08.21,4.63.22h41C624.76,628.53,625.93,626.75,623.37,621Z" transform="translate(0.02 -0.05)"/><path class="cls-2" d="M546.11,602.25l-40.36-90.61a9.26,9.26,0,0,0-.59-1.23,1.18,1.18,0,0,0-1.63-.37,1.09,1.09,0,0,0-.37.37,7.71,7.71,0,0,0-.49,1l-12.81,28.77L476,571.26l-13.84-31.08-12.85-28.74a7.71,7.71,0,0,0-.49-1,1.18,1.18,0,0,0-1.63-.37,1.09,1.09,0,0,0-.37.37,9.26,9.26,0,0,0-.59,1.23q-20.17,45.3-40.37,90.61L395.34,626c-.89,2-.48,2.61,1.74,2.62h14.26c.54,0,1.08-.08,1.61-.08,1.17,0,1.2,0,1.6-1.09.82-2.16,1.49-4.39,2.5-6.46a35,35,0,0,1,6.68-9.94,27.51,27.51,0,0,1,14.32-7.43c2.83-.55,5.71-.88,8.58-1.17a29.31,29.31,0,0,1,7.65.55c1.79.29,3.57.68,5.35,1a2.71,2.71,0,0,0,.57,0c-.19-.51-.3-.91-.47-1.28-1.74-3.7-3.49-7.4-5.21-11.11a3.24,3.24,0,0,0-1.64-1.58A24.49,24.49,0,0,0,434,588.75c-.75.23-1.48.53-2.24.72a.89.89,0,0,1-1.1-1.21c.07-.2.17-.38.25-.57q2.52-5.67,5-11.34l11.19-25.14c.19-.45.42-.88.72-1.5.27.47.48.76.62,1.08l10.44,23.58c1.88,4.23,3.85,8.42,5.64,12.68.74,1.76,1.45,3.52,2.15,5.29,1.16,2.91,2.3,5.83,3.48,8.74,1.94,4.8,3.92,9.59,5.88,14.39,1.95-4.8,3.94-9.59,5.88-14.39,1.18-2.91,2.32-5.83,3.48-8.74.7-1.77,1.41-3.53,2.15-5.29,1.79-4.26,3.76-8.45,5.64-12.68q5.24-11.79,10.44-23.58c.14-.32.35-.61.62-1.08.3.62.53,1,.72,1.5l11.19,25.14,5,11.34c.08.19.18.37.25.57.26.83-.24,1.42-1.1,1.21s-1.49-.49-2.24-.72A24.49,24.49,0,0,0,499.1,590a3.24,3.24,0,0,0-1.64,1.58c-1.72,3.71-3.47,7.41-5.21,11.11-.17.37-.28.77-.47,1.28a2.72,2.72,0,0,0,.57,0c1.78-.34,3.56-.73,5.35-1a29.31,29.31,0,0,1,7.65-.55c2.87.29,5.75.62,8.58,1.17a27.44,27.44,0,0,1,14.3,7.4,35,35,0,0,1,6.68,9.94c1,2.07,1.68,4.3,2.5,6.46.4,1.07.43,1.09,1.6,1.09.53,0,1.07.08,1.61.08h14.26c2.22,0,2.63-.62,1.74-2.62Q551.39,614.07,546.11,602.25Z" transform="translate(0.02 -0.05)"/></svg>